<svg width="281" height="257" viewBox="0 0 281 257" fill="none" xmlns="http://www.w3.org/2000/svg">
<path d="M179.726 34.7231C169.537 51.8489 151.128 84.8715 140.323 104.198C139.528 101.983 138.915 99.6988 138.232 98.2134C135.849 93.0376 131.619 90.8689 127.91 86.8405C124.232 82.8445 121.675 78.2077 118.951 73.5373C110.803 59.5639 100.918 44.527 89.8217 32.7407C82.7812 25.2626 75.3015 18.5545 64.7785 17.0898C51.571 15.2514 37.4566 19.1112 25.6943 24.9674C2.19551 36.667 0.510081 69.2568 11.6534 90.4402C16.0098 98.7218 19.0763 106.922 25.5371 113.969C32.8361 121.929 41.1616 128.732 49.2706 135.828C71.4058 155.197 90.4195 175.337 107.949 198.953C120.831 216.307 134.487 232.984 146.771 250.653C151.857 257.968 162.428 233.207 163.694 231.089C168.562 222.949 174.614 215.345 181.193 208.552C187.404 202.138 192.386 194.838 199.058 188.78C206.353 182.157 212.786 174.728 220.277 168.173C226.909 162.369 232.825 156.16 239.033 149.913C252.718 136.145 266.207 119.779 271.935 100.978C279.123 77.3839 277.83 46.9574 259.466 28.6715C252.276 21.5118 245.876 10.3336 235.89 7.07327C228.7 4.72607 219.725 4.49174 212.313 5.76904C207.69 6.56587 199.499 8.16753 195.967 11.3512C190.253 16.5021 182.258 30.4673 179.726 34.7231Z" fill="#957C57"/>
<path d="M136.869 110.369C146.71 92.8125 168.346 53.8516 179.726 34.7231C182.258 30.4673 190.253 16.5021 195.967 11.3512C199.499 8.16753 207.69 6.56587 212.313 5.76904C219.725 4.49174 228.7 4.72607 235.89 7.07327C245.876 10.3336 252.276 21.5118 259.466 28.6715C277.83 46.9574 279.123 77.3839 271.935 100.978C266.207 119.779 252.718 136.145 239.033 149.913C232.825 156.16 226.909 162.369 220.277 168.173C212.786 174.728 206.353 182.157 199.058 188.78C192.386 194.838 187.404 202.138 181.193 208.552C174.614 215.345 168.562 222.949 163.694 231.089C162.428 233.207 151.857 257.968 146.771 250.653C134.487 232.984 120.831 216.307 107.949 198.953C90.4195 175.337 71.4058 155.197 49.2706 135.828C41.1616 128.732 32.8361 121.929 25.5371 113.969C19.0763 106.922 16.0098 98.7218 11.6534 90.4402C0.510081 69.2568 2.19551 36.667 25.6943 24.9674C37.4566 19.1112 51.571 15.2514 64.7785 17.0898C75.3015 18.5545 82.7812 25.2626 89.8217 32.7407C100.918 44.527 110.803 59.5639 118.951 73.5373C121.675 78.2077 124.232 82.8445 127.91 86.8405C131.619 90.8689 135.849 93.0376 138.232 98.2134C139.736 101.481 140.895 108.617 144.414 110.369" stroke="#957C57" stroke-width="10" stroke-linecap="round"/>
</svg>
